<?xml version="1.0" encoding="UTF-8" standalone="no"?>
<!-- Created with Inkscape (http://www.inkscape.org/) -->

<svg
   width="99.999992mm"
   height="100mm"
   viewBox="0 0 99.999992 100"
   version="1.1"
   id="svg1"
   xml:space="preserve"
   xmlns:inkscape="http://www.inkscape.org/namespaces/inkscape"
   xmlns:sodipodi="http://sodipodi.sourceforge.net/DTD/sodipodi-0.dtd"
   xmlns="http://www.w3.org/2000/svg"
   xmlns:svg="http://www.w3.org/2000/svg"><sodipodi:namedview
     id="namedview1"
     pagecolor="#ffffff"
     bordercolor="#000000"
     borderopacity="0.25"
     inkscape:showpageshadow="2"
     inkscape:pageopacity="0.0"
     inkscape:pagecheckerboard="0"
     inkscape:deskcolor="#d1d1d1"
     inkscape:document-units="mm" /><defs
     id="defs1" /><g
     inkscape:label="Layer 1"
     inkscape:groupmode="layer"
     id="layer1"
     transform="translate(-0.13936726,-0.25092986)"><g
       id="g18"
       transform="matrix(0.1953125,0,0,0.19432569,0.13936726,0.25092986)">&#10;	<g
   id="g3">&#10;		<g
   id="g2">&#10;			<path
   fill="#b99d6f"
   d="m 494,43.5 c -0.6,0 -1.3,0 -2,-0.1 -0.1,0 -11.9,-1.2 -11.1,-14.8 l 4,0.2 c -0.5,9.5 6.6,10.4 7.4,10.5 4.6,0.3 8.3,-0.7 10.8,-3.1 3.9,-3.7 4.8,-9.9 4.8,-14.5 C 508,12 500,4 490.1,4 H 312.9 V 0 h 177.3 c 12,0 21.8,9.8 21.8,21.9 0,7.7 -2.1,13.7 -6.1,17.4 -3,2.8 -7,4.2 -11.9,4.2 z"
   id="path1" />&#10;			<path
   fill="#b99d6f"
   d="m 500.9,40.2 c 0,0 -7.8,-2.5 -6.2,-10.4 0.3,-1.3 1.4,-9 -4.4,-10.2 -5.8,-1.2 -9.4,4.1 -9.4,9.2 0.1,5.1 7.1,17.5 20,11.4 z"
   id="path2" />&#10;		</g>&#10;		<rect
   x="161.5"
   y="28.200001"
   fill="#b99d6f"
   width="301.10001"
   height="4"
   id="rect2" />&#10;		<polygon
   fill="#b99d6f"
   points="157.7,17.9 194,30.3 157.7,42.6 145.3,30.3 "
   id="polygon2" />&#10;	</g>&#10;	<g
   id="g5">&#10;		<g
   id="g4">&#10;			<path
   fill="#b99d6f"
   d="M 21.9,514.6 C 9.8,514.6 0,504.8 0,492.7 V 315.5 h 4 v 177.3 c 0,9.8 8,17.8 17.8,17.8 4.6,0 10.8,-0.8 14.5,-4.8 2.4,-2.6 3.4,-6.2 3.1,-10.9 -0.1,-0.8 -1.1,-7.9 -10.5,-7.4 l -0.2,-4 c 13.6,-0.8 14.8,11 14.8,11.1 0.4,5.8 -1,10.5 -4.2,13.9 -3.7,4 -9.7,6.1 -17.4,6.1 z"
   id="path3" />&#10;			<path
   fill="#b99d6f"
   d="m 40.2,503.5 c 0,0 -2.5,-7.8 -10.4,-6.2 -1.3,0.3 -9,1.4 -10.2,-4.4 -1.2,-5.8 4.1,-9.4 9.2,-9.4 5.1,0.1 17.5,7.1 11.4,20 z"
   id="path4" />&#10;		</g>&#10;		<rect
   x="28.200001"
   y="164.10001"
   fill="#b99d6f"
   width="4"
   height="301.10001"
   id="rect4" />&#10;		<polygon
   fill="#b99d6f"
   points="17.9,160.3 30.3,196.6 42.6,160.3 30.3,147.9 "
   id="polygon4" />&#10;	</g>&#10;	<g
   id="frame07_00000157304147495613686470000014976440197410854075_">&#10;		<polygon
   fill="#b99d6f"
   points="209.7,232.7 233.7,232.7 233.7,208.7 192.5,191.5 "
   id="polygon5" />&#10;		&#10;			<rect
   x="159.8"
   y="104.9"
   transform="matrix(0.7071,-0.7071,0.7071,0.7071,-66.3432,161.5631)"
   fill="#b99d6f"
   width="4"
   height="112"
   id="rect5" />&#10;		<path
   fill="#b99d6f"
   d="m 215.7,184.7 c 0,0 9.7,14.7 30.3,10.3 20.6,-4.4 19.5,-20.4 10.3,-22.4 -4.6,-1 -7.7,3 -12.9,8.9 -6.3,7.1 -15.1,7.1 -27.7,3.2 z"
   id="path5" />&#10;		<path
   fill="#b99d6f"
   d="m 185.7,214.7 c 0,0 14.7,9.7 10.3,30.3 -4.4,20.6 -20.4,19.5 -22.4,10.3 -1,-4.6 3,-7.7 8.9,-12.9 7.1,-6.3 7.1,-15.1 3.2,-27.7 z"
   id="path6" />&#10;		<g
   id="g11">&#10;			<path
   fill="#b99d6f"
   d="m 33.5,278.9 -3.8,-1.4 c 5,-13 7.1,-27.9 9.3,-43.6 2.8,-20.1 5.8,-40.9 15.1,-60.5 7.2,-15.2 27.9,-33.2 52.1,-36.9 14.3,-2.2 35.6,-0.1 55.9,22 12.7,13.8 19.2,27.5 19.5,40.8 0.2,9.5 -2.9,19 -9.1,27.3 -7,9.5 -18.4,14.5 -29.5,13 l 0.5,-4 c 9.7,1.3 19.6,-3.1 25.7,-11.4 9.7,-13.1 15.8,-34.7 -10.1,-63 -15.1,-16.4 -33.2,-23.6 -52.3,-20.7 -22.8,3.4 -42.3,20.4 -49.1,34.6 -9.1,19 -11.9,39.5 -14.7,59.4 -2.2,15.8 -4.3,30.9 -9.5,44.4 z"
   id="path7" />&#10;			<path
   fill="#b99d6f"
   d="m 34.2,268.5 c 0,0 -5.9,9.2 -15.9,4.5 -1.7,-0.8 -11.6,-4.8 -15,2.2 -3.5,7 2.4,13.5 9.2,15.2 6.8,1.7 25.7,-3.1 21.7,-21.9 z"
   id="path8" />&#10;			<path
   fill="#b99d6f"
   d="m 62.9,233.6 c 0,0 7.9,1.3 10.1,-6.2 0.4,-1.3 3,-8.4 8.4,-6.9 5.5,1.6 6.2,7.8 3.8,12.3 -2.2,4.4 -14,12 -22.3,0.8 z"
   id="path9" />&#10;			<path
   fill="#b99d6f"
   d="m 72.6,239.1 c -2.5,0 -26.5,-0.9 -28.3,-36.1 l 4,-0.2 c 1.7,32.7 23.4,32.3 24.3,32.2 l 0.2,4 c 0,0.1 -0.1,0.1 -0.2,0.1 z"
   id="path10" />&#10;			<path
   fill="#b99d6f"
   d="m 174.5,223 c 0,0 -12.1,22.7 -42.7,19.1 -30.6,-3.6 -31.1,-27 -18.1,-31.2 6.5,-2.1 11.6,3.3 20,11.1 10.2,9.6 23,8.4 40.8,1 z"
   id="path11" />&#10;		</g>&#10;		<path
   fill="#b99d6f"
   d="M 124.3,123.3 H 57.5 V 56.5 h 66.8 z m -62.7,-4.1 h 58.7 V 60.6 H 61.6 Z"
   id="path12" />&#10;		&#10;			<rect
   x="76.599998"
   y="75.599998"
   transform="rotate(-90,90.90255,89.91575)"
   fill="#b99d6f"
   width="28.6"
   height="28.6"
   id="rect12" />&#10;		<g
   id="g17">&#10;			<path
   fill="#b99d6f"
   d="m 201,180.6 c -0.3,0 -0.6,0 -0.8,0 -13.3,-0.3 -27.1,-6.8 -40.8,-19.5 -22.1,-20.3 -24.1,-41.6 -22,-55.9 3.6,-24.2 21.7,-44.9 36.9,-52.1 19.6,-9.3 40.4,-12.3 60.5,-15.1 15.7,-2.2 30.5,-4.3 43.6,-9.3 l 1.4,3.8 c -13.5,5.1 -28.5,7.3 -44.4,9.5 -19.8,2.8 -40.3,5.7 -59.4,14.7 -14.2,6.8 -31.2,26.3 -34.6,49.1 -2.9,19.1 4.3,37.2 20.7,52.3 28.2,26 49.8,19.9 63,10.1 8.3,-6.2 12.7,-16 11.4,-25.7 l 4,-0.5 c 1.5,11.2 -3.5,22.5 -13,29.5 -8.1,6 -17.2,9.1 -26.5,9.1 z"
   id="path13" />&#10;			<path
   fill="#b99d6f"
   d="m 269.5,33.2 c 0,0 9.2,-5.9 4.5,-15.9 -0.8,-1.7 -4.8,-11.6 2.2,-15 7,-3.5 13.5,2.4 15.2,9.2 1.7,6.8 -3.1,25.7 -21.9,21.7 z"
   id="path14" />&#10;			<path
   fill="#b99d6f"
   d="m 234.6,61.9 c 0,0 1.3,7.9 -6.2,10.1 -1.3,0.4 -8.4,3 -6.9,8.4 1.6,5.5 7.8,6.2 12.3,3.8 4.4,-2.2 12,-14 0.8,-22.3 z"
   id="path15" />&#10;			<path
   fill="#b99d6f"
   d="m 240.1,71.8 -4,-0.2 2,0.1 -2,-0.1 c 0,-0.9 0.5,-22.6 -32.2,-24.3 l 0.2,-4 c 36.8,1.9 36,28.3 36,28.5 z"
   id="path16" />&#10;			<path
   fill="#b99d6f"
   d="m 224,173.5 c 0,0 22.7,-12.1 19.1,-42.7 -3.6,-30.6 -27,-31.1 -31.2,-18.1 -2.1,6.5 3.3,11.6 11.1,20 9.6,10.2 8.4,23 1,40.8 z"
   id="path17" />&#10;		</g>&#10;	</g>&#10;</g></g></svg>
